<svg xmlns="http://www.w3.org/2000/svg" version="1.1" xmlns:xlink="http://www.w3.org/1999/xlink" viewBox="0 0 200 200"><rect width="200" height="200" fill="url('#gradient')"></rect><defs><linearGradient id="gradient" gradientTransform="rotate(45 0.5 0.5)"><stop offset="0%" stop-color="#6366f1"></stop><stop offset="100%" stop-color="#6366f1"></stop></linearGradient></defs><g><g fill="#ffffff" transform="matrix(4.302521008403361,0,0,4.302521008403361,8.485846570559914,130.16239177479463)" stroke="#ffffff" stroke-width="0.2"><path d="M6.74-4.46L6.74-14.22L10.16-14.22L10.16-4.46Q10.16-3.11 9.53-2.04Q8.90-0.98 7.77-0.39Q6.64 0.20 5.25 0.20L5.25 0.20Q2.93 0.20 1.64-0.98Q0.35-2.15 0.35-4.30L0.35-4.30L3.79-4.30Q3.79-3.32 4.13-2.88Q4.46-2.44 5.25-2.44L5.25-2.44Q5.97-2.44 6.35-2.97Q6.74-3.51 6.74-4.46L6.74-4.46ZM20.04-14.22L23.47-14.22L23.47-4.91Q23.47-3.33 22.79-2.17Q22.12-1.02 20.86-0.41Q19.60 0.20 17.88 0.20L17.88 0.20Q15.28 0.20 13.79-1.15Q12.29-2.50 12.27-4.84L12.27-4.84L12.27-14.22L15.71-14.22L15.71-4.78Q15.77-2.44 17.88-2.44L17.88-2.44Q18.95-2.44 19.49-3.03Q20.04-3.61 20.04-4.93L20.04-4.93L20.04-14.22ZM30.28 0L25.61 0L25.61-14.22L30.19-14.22Q32.07-14.22 33.57-13.36Q35.08-12.51 35.92-10.95Q36.77-9.39 36.78-7.46L36.78-7.46L36.78-6.81Q36.78-4.85 35.95-3.31Q35.13-1.76 33.63-0.88Q32.13-0.01 30.28 0L30.28 0ZM30.19-11.57L29.03-11.57L29.03-2.64L30.22-2.64Q31.70-2.64 32.49-3.69Q33.28-4.74 33.28-6.81L33.28-6.81L33.28-7.42Q33.28-9.48 32.49-10.53Q31.70-11.57 30.19-11.57L30.19-11.57ZM42.19-14.22L42.19 0L38.77 0L38.77-14.22L42.19-14.22Z"></path></g></g></svg>